# xmcd
#
# Track frame offsets:
#	150
#	16753
#	27103
#	41344
#	54548
#	70012
#	84082
#	99721
#	112808
#	131312
#
# Disc length: 1955 seconds
# Revision: 0
# Processed by: cddbd v1.5.2PL0 Copyright (c) Steve Scherf et al.
# Submitted via: dBpowerAMP V12.0
#
DISCID=6807a10a
DTITLE=Unspoken Tradition - Miles Between
DYEAR=2015
DGENRE=Mountian Home
TTITLE0=Point of Rocks Station
TTITLE1=One Mule Plow
TTITLE2=The Bullet
TTITLE3=Been in Love Before
TTITLE4=Miles Between Them
TTITLE5=Rivers That I've Crossed
TTITLE6=Losers Like Me
TTITLE7=Rattlesnake Run
TTITLE8=One More Drink
TTITLE9=Who Will Sing?
EXTD=
EXTT0=
EXTT1=
EXTT2=
EXTT3=
EXTT4=
EXTT5=
EXTT6=
EXTT7=
EXTT8=
EXTT9=
PLAYORDER=
